<svg xmlns="http://www.w3.org/2000/svg" xmlns:svg="http://www.w3.org/2000/svg" id="svg2" width="744.094" height="1052.362" version="1.1"><metadata id="metadata7"/><g id="layer1"><flowRoot id="flowRoot2985" xml:space="preserve" style="fill:#000;stroke:none;stroke-opacity:1;stroke-width:1px;stroke-linejoin:miter;stroke-linecap:butt;fill-opacity:1;font-family:Sans;font-style:normal;font-weight:400;font-size:40px;line-height:125%;letter-spacing:0;word-spacing:0"><flowRegion id="flowRegion2987"><rect id="rect2989" width="630.335" height="319.208" x="64.65" y="304.849"/></flowRegion><flowPara id="flowPara2991"/></flowRoot><flowRoot id="flowRoot2993" transform="matrix(1.0344169,0,0,1,-7.5300745,-72)" xml:space="preserve" style="font-size:72px;font-style:normal;font-variant:normal;font-weight:500;font-stretch:normal;line-height:125%;letter-spacing:0;word-spacing:.11798681px;fill:#000;fill-opacity:1;stroke:none;font-family:Eadui;-inkscape-font-specification:Eadui Medium"><flowRegion id="flowRegion2995"><rect id="rect2997" width="643.64" height="384.45" x="48.487" y="278.585" style="font-size:72px;font-style:normal;font-variant:normal;font-weight:500;font-stretch:normal;word-spacing:.11798681px;font-family:Eadui;-inkscape-font-specification:Eadui Medium"/></flowRegion><flowPara id="flowPara3033" style="font-size:100px;text-align:center;line-height:105.99999428%;word-spacing:8.50268078px;text-anchor:middle">I&apos;m not a geek</flowPara><flowPara id="flowPara3035" style="font-size:70.79208374px;text-align:center;line-height:105.99999428%;word-spacing:8.50268078px;text-anchor:middle">I&apos;m a level 3/2 hacker/mage</flowPara></flowRoot><flowRoot id="flowRoot2993-2" transform="matrix(1.0344169,0,0,1,-6.5559329,367.36316)" xml:space="preserve" style="font-size:72px;font-style:normal;font-variant:normal;font-weight:500;font-stretch:normal;line-height:125%;letter-spacing:0;word-spacing:.11798681px;fill:#000;fill-opacity:1;stroke:none;font-family:Eadui;-inkscape-font-specification:Eadui Medium"><flowRegion id="flowRegion2995-0"><rect id="rect2997-2" width="643.64" height="384.45" x="48.487" y="278.585" style="font-size:72px;font-style:normal;font-variant:normal;font-weight:500;font-stretch:normal;word-spacing:.11798681px;font-family:Eadui;-inkscape-font-specification:Eadui Medium"/></flowRegion><flowPara id="flowPara3035-7" style="font-size:47.19472122px;text-align:center;line-height:105.99999428%;word-spacing:8.50268078px;text-anchor:middle">Elminster this, Elminster that. Give ME 2000 years and a pointy hat and I&apos;ll kick his arse!</flowPara><flowPara style="font-size:47.19472122px;text-align:end;line-height:105.99999428%;word-spacing:8.50268078px;text-anchor:end" id="flowPara3027">- Edwin Odesseiron</flowPara></flowRoot><flowRoot id="flowRoot3037" xml:space="preserve" style="fill:#000;stroke:none;stroke-opacity:1;stroke-width:1px;stroke-linejoin:miter;stroke-linecap:butt;fill-opacity:1;font-family:Sans;font-style:normal;font-weight:400;font-size:40px;line-height:125%;letter-spacing:0;word-spacing:0"><flowRegion id="flowRegion3039"><rect id="rect3041" width="1060.66" height="727.31" x="-202.03" y="201.814"/></flowRegion><flowPara id="flowPara3043"/></flowRoot><g id="g3046" transform="translate(282.85664,402.6479)"><path id="rb1_3_" d="M 27.873,193.766 V 135.24 c 0,-23.674 19.191,-42.865 42.866,-42.865 v 37.508 c 0,35.279 28.603,63.883 63.883,63.883 35.281,0 63.884,-28.604 63.884,-63.883 0,-35.283 -28.603,-63.885 -63.884,-63.885 H 97.116 V 6.234 l -26.378,26.378 0.001,33.387 c -38.242,0 -69.244,31 -69.244,69.241 v 58.525 h 26.378 z"/><g id="gem_1_"><path id="path3050" d="m 98.383,139.588 c -0.827,-3.096 -1.267,-6.348 -1.267,-9.705 V 92.375 l 37.506,37.508 -36.239,9.705 z" style="fill:#6156ff"/><path id="path3052" d="m 134.622,129.883 -9.709,36.236 C 112,162.67 101.832,152.502 98.383,139.588 l 36.239,-9.705 z" style="fill:#867dff"/><path id="path3054" d="m 134.622,129.883 26.521,26.52 c -6.787,6.787 -16.163,10.988 -26.521,10.988 -3.357,0 -6.612,-0.443 -9.709,-1.271 l 9.709,-36.237 z" style="fill:#6156ff"/><path id="path3056" d="m 170.859,120.172 c 0.828,3.098 1.27,6.352 1.27,9.711 0,10.357 -4.198,19.732 -10.986,26.52 l -26.521,-26.52 36.237,-9.711 z" style="fill:#3c2eff"/><path id="path3058" d="m 134.622,129.883 9.71,-36.239 c 12.91,3.451 23.077,13.616 26.527,26.528 l -36.237,9.711 z" style="fill:#2212ff"/><path id="path3060" d="m 97.116,92.375 h 37.506 c 3.357,0 6.613,0.442 9.71,1.269 l -9.71,36.239 -37.506,-37.508 z" style="fill:#3c2eff"/><polygon id="polygon3062" points="149.195 144.455 129.288 149.789 114.715 135.215 120.049 115.309 139.956 109.975 154.529 124.547" style="fill:#aaa4ff"/></g></g></g></svg>
